<?xml version="1.0" encoding="UTF-8"?>
<!-- Generator: Adobe Illustrator 23.1.0, SVG Export Plug-In . SVG Version: 6.00 Build 0)  -->
<svg xmlns="http://www.w3.org/2000/svg" xmlns:xlink="http://www.w3.org/1999/xlink" version="1.1" id="Layer_1" x="0px" y="0px" viewBox="0 0 1788 832" style="enable-background:new 0 0 1788 832;" xml:space="preserve">
<style type="text/css">
	.st0{fill:#676767;}
	.st1{clip-path:url(#SVGID_2_);fill:url(#SVGID_3_);}
</style>
<g>
	<path class="st0" d="M33.3,707.7c0-6.9,4.1-11.5,10.9-11.5c6.8,0,10.9,4.6,10.9,11.5v3h0.3c6-9.2,16.1-14.5,27.8-14.5   c7.9,0,17.8,3.6,22.1,14.5c6.5-9,14.7-14.5,27.2-14.5c16,0,28.7,7.3,28.7,27.9v47.2c0,6.2-2.5,11.5-11.5,11.5   c-9,0-11.5-5.4-11.5-11.5V730c0-8.2-3.6-14.8-12.6-14.8c-8.8,0-16.7,7.1-16.7,17.8v38.4c0,6.2-2.5,11.5-11.5,11.5   c-9,0-11.5-5.4-11.5-11.5V730c0-8.2-3.6-14.8-12.6-14.8c-8.8,0-16.7,7.1-16.7,17.8v38.4c0,6.2-2.5,11.5-11.5,11.5   c-9,0-11.5-5.4-11.5-11.5V707.7z"></path>
	<path class="st0" d="M274.7,696.2c27.8,0,42.6,19,42.6,43.3c0,23.1-11.2,43.4-42.6,43.4c-31.4,0-42.6-20.4-42.6-43.4   C232.1,715.1,246.9,696.2,274.7,696.2 M274.7,765.8c13.7,0,19.6-12.3,19.6-26.4c0-15-6.2-26.2-19.6-26.2   c-13.4,0-19.6,11.2-19.6,26.2C255.2,753.5,261,765.8,274.7,765.8"></path>
	<path class="st0" d="M380.7,714c-0.6-1.9-1.4-4.4-1.4-5.8c0-8.2,5.7-12,11.2-12c8.7,0,10.9,7.3,11.5,9.6l15.5,52.1h0.3l15.5-52.1   c0.6-2.4,2.8-9.6,11.5-9.6c5.5,0,11.2,3.8,11.2,12c0,1.4-0.8,3.9-1.4,5.8l-21.8,60.6c-2.2,6.2-3.6,8.2-15.2,8.2   c-11.5,0-12.9-2-15.2-8.2L380.7,714z"></path>
	<path class="st0" d="M535.1,664.4c6.6,0,12,5.4,12,12c0,6.6-5.4,12-12,12c-6.6,0-12-5.4-12-12C523.1,669.8,528.5,664.4,535.1,664.4    M523.6,707.7c0-6.2,2.5-11.5,11.5-11.5c9,0,11.5,5.4,11.5,11.5v63.6c0,6.2-2.5,11.5-11.5,11.5c-9,0-11.5-5.4-11.5-11.5V707.7z"></path>
	<path class="st0" d="M622.3,707.7c0-6.9,3.2-11.5,10.4-11.5c7.3,0,10.4,4.6,10.4,11.5v3h0.3c6.5-8.5,14.8-14.5,27.9-14.5   c13.9,0,29.1,6.9,29.1,30.3v44.8c0,6.2-2.5,11.5-11.5,11.5c-9,0-11.5-5.4-11.5-11.5v-40.3c0-9.3-4.6-15.9-14.5-15.9   c-8.1,0-17.5,6.6-17.5,18.2v38.1c0,6.2-2.5,11.5-11.5,11.5c-9,0-11.5-5.4-11.5-11.5V707.7z"></path>
	<path class="st0" d="M853,774c0,27.8-17.1,40.6-41.1,40.6c-17.5,0-34.7-7.9-34.7-19.1c0-5.7,4.4-9.8,9.5-9.8   c9.6,0,11.5,11.8,24.5,11.8c14.1,0,19.7-7.1,19.7-25.3v-4.7h-0.3c-4.1,6-13.1,11.1-22.3,11.1c-24.3,0-37-15.8-37-38.5   c0-29.8,16.7-43.9,36.2-43.9c11.2,0,20,5.2,24.3,13.7h0.3v-2.8c0-7.1,3.6-10.9,10.4-10.9c7.1,0,10.4,3.8,10.4,10.9V774z    M812.7,761.5c10.3,0,18.2-6.8,18.2-23.2c0-16.7-6.3-24.2-17.1-24.2c-14.8,0-19.4,10.9-19.4,25.1   C794.4,749.8,799.6,761.5,812.7,761.5"></path>
	<path class="st0" d="M1026.2,715.4c-0.8-2.5-1.6-5.1-1.6-8.5c0-6,5.4-10.7,11.2-10.7c8.5,0,9.8,4.6,11.4,11.2l12.2,50.5h0.3   l9.8-45.9c1.9-9,3.8-16.1,14.5-15.8c10.9-0.3,13.1,6.6,15.2,15.8l9.9,45.9h0.3l11.4-50.5c1.4-6.6,2.8-11.2,11.4-11.2   c5.8,0,11.2,4.7,11.2,10.7c0,3.5-0.8,6-1.6,8.5l-16.9,54.9c-3.3,10.9-5.8,12.5-15,12.5c-9.6,0-12-2.8-14.4-12l-11.4-45.3h-0.3   l-11.4,45.3c-2.4,9.2-4.7,12-14.4,12c-9.2,0-11.7-1.6-15-12.5L1026.2,715.4z"></path>
	<path class="st0" d="M1287.2,758.5c0,9.6,2.4,11.8,2.4,15.5c0,5.2-4.9,8.8-10.4,8.8c-9.9,0-13.3-6.3-13.6-13.4   c-9,10-19.4,13.4-31.6,13.4c-13.1,0-26.1-9-26.1-23.5c0-19.1,14.5-24.5,32.2-26.5l14.1-1.6c5.5-0.6,9.9-1.9,9.9-8.5   c0-6.6-6.8-9.5-14.5-9.5c-17.1,0-17.5,12.6-26.7,12.6c-5.8,0-9.8-4.1-9.8-8.8c0-9.2,13-20.8,36.6-20.8c22.1,0,37.4,7.1,37.4,23.7   V758.5z M1264.1,742c-2.5,2.4-7.3,3.2-9.9,3.6l-8.4,1.3c-9.6,1.4-14.8,4.4-14.8,11.4c0,5.2,4.9,9.5,12.8,9.5   c12.6,0,20.4-8.2,20.4-16.7V742z"></path>
	<path class="st0" d="M1364.4,676.6c0-7.6,4.6-11.5,11.5-11.5c6.9,0,11.5,3.9,11.5,11.5v94.7c0,7.6-4.6,11.5-11.5,11.5   c-6.9,0-11.5-3.9-11.5-11.5V676.6z"></path>
	<path class="st0" d="M1464.3,676.6c0-7.6,4.6-11.5,11.5-11.5c7,0,11.5,3.9,11.5,11.5v94.7c0,7.6-4.6,11.5-11.5,11.5   c-6.9,0-11.5-3.9-11.5-11.5V676.6z"></path>
	<path class="st0" d="M1594,696.2c17.5,0,35.2,7,35.2,17.5c0,5.4-3.6,10.1-9.6,10.1c-9,0-9.3-10.6-23.8-10.6   c-8.1,0-13.3,2.2-13.3,7.1c0,5.4,5.2,6.6,12.3,8.2l9.6,2.2c13.1,3,28.7,8.5,28.7,24.6c0,18.8-18.2,27.5-35.5,27.5   c-20.8,0-38.2-9.3-38.2-20.7c0-5.1,2.8-9.6,9.3-9.6c9.9,0,10.9,14.2,27.9,14.2c8.2,0,13.4-3.6,13.4-8.4c0-5.8-5-6.8-13.3-8.8   l-13.6-3.3c-13.4-3.3-23.8-8.8-23.8-24.3C1559.4,703.1,1578,696.2,1594,696.2"></path>
	<g>
		<defs>
			<path id="SVGID_1_" d="M1505.1,77.1l-99.2,290.4l-99.2-290.4c-9.8-26.7-35.5-44.6-64-44.6c-28.4,0-54.1,17.9-64,44.6l-99.2,290.4     L980.3,77.1c-10.8-32.1-35.5-44.6-64-44.6c-28.4,0-51.9,12.5-64,44.6l-99.2,290.5L653.9,77.1c-13.2-32.7-35.5-44.6-64-44.6     c-28.5,0-54.2,17.9-64,44.6l-99.2,290.4L327.5,77.1c-9.8-26.7-35.5-44.6-64-44.6c-28.5,0-54.2,17.9-64,44.6L36.4,521.2     c-6.3,17.1-5.5,35.6,2.1,52.1c7.6,16.5,21.3,29.1,38.4,35.4c7.6,2.8,15.5,4.2,23.5,4.2h0c28.5,0,54.2-17.9,64-44.7l99.2-283.6     l99.2,283.6c9.8,26.7,35.5,44.6,64,44.6c28.4,0,54.2-17.9,64-44.6l99.2-283.6l99.2,283.6c9.8,26.7,35.5,44.6,64,44.6     c28.4,0,54.2-17.9,64-44.6l99.2-283.6l99.2,283.6c9.8,26.7,35.5,44.6,64,44.6c28.4,0,54.1-17.9,64-44.6l99.2-283.6l99.2,283.6     c9.8,26.7,35.5,44.6,64,44.6c28.4,0,52.6-14.7,64-44.6L1633,124.1c6.3-17.1,5.5-35.6-2.1-52.1c-7.6-16.5-21.3-29.1-38.3-35.4     c-7.6-2.8-15.5-4.2-23.5-4.2C1540.6,32.5,1514.9,50.4,1505.1,77.1"></path>
		</defs>
		<clipPath id="SVGID_2_">
			<use xlink:href="#SVGID_1_" style="overflow:visible;"></use>
		</clipPath>
		
			<linearGradient id="SVGID_3_" gradientUnits="userSpaceOnUse" x1="662.5596" y1="960.0063" x2="665.967" y2="960.0063" gradientTransform="matrix(471.0713 0 0 -471.0713 -312082.625 452554.0938)">
			<stop offset="0" style="stop-color:#61CBF5"></stop>
			<stop offset="0.2692" style="stop-color:#1E76BB"></stop>
			<stop offset="0.3791" style="stop-color:#2A3B8F"></stop>
			<stop offset="1" style="stop-color:#010101"></stop>
		</linearGradient>
		<rect x="30.2" y="32.5" class="st1" width="1609.1" height="580.4"></rect>
	</g>
	<path class="st0" d="M1710.9,33.6c-26.6,0-48.2,21.6-48.2,48.2c0,26.6,21.6,48.2,48.2,48.2c26.6,0,48.2-21.6,48.2-48.2   C1759.1,55.2,1737.5,33.6,1710.9,33.6 M1710.9,122.2c-22.3,0-40.4-18.1-40.4-40.4c0-22.3,18.1-40.4,40.4-40.4   c22.3,0,40.4,18.1,40.4,40.4C1751.3,104.1,1733.2,122.2,1710.9,122.2 M1724.2,87.7c-1.4-1.5-3.3-2.9-5.5-4.2   c4.4-0.6,7.7-2.2,10-4.7c2.2-2.5,3.3-5.6,3.3-9.4c0-3-0.7-5.6-2.2-7.9c-1.5-2.3-3.4-3.9-5.9-4.8c-2.4-0.9-6.3-1.4-11.7-1.4h-21.4   v50.4h10.2v-21h2.1c2.3,0,4,0.2,5.1,0.6c1.1,0.4,2.1,1.1,3.1,2.1c1,1,2.8,3.5,5.4,7.4l7.3,11h12.2l-6.2-9.8   C1727.6,91.9,1725.6,89.2,1724.2,87.7 M1708.6,76.6h-7.5V63.8h7.9c4.1,0,6.6,0.1,7.4,0.2c1.6,0.3,2.9,0.9,3.8,2   c0.9,1,1.3,2.4,1.3,4.1c0,1.5-0.3,2.8-1,3.8c-0.7,1-1.6,1.7-2.9,2.1C1716.5,76.4,1713.4,76.6,1708.6,76.6"></path>
</g>
</svg>
